<?xml version="1.0" encoding="UTF-8"?>
<svg version="1.1" xmlns="http://www.w3.org/2000/svg" width="447" height="447">
<path d="M0 0 C147.51 0 295.02 0 447 0 C447 147.51 447 295.02 447 447 C299.49 447 151.98 447 0 447 C0 299.49 0 151.98 0 0 Z " fill="#FDFEFE" transform="translate(0,0)"/>
<path d="M0 0 C5.06914893 4.26638335 9.74074291 10.02760049 10.38351715 16.84329545 C10.46243539 19.34443423 10.47620554 21.83871285 10.46946716 24.34111023 C10.47732218 25.78251246 10.47732218 25.78251246 10.48533589 27.25303394 C10.50034732 30.47561607 10.5010413 33.69803958 10.50170898 36.9206543 C10.50932977 39.23026294 10.51775713 41.53986905 10.52693176 43.84947205 C10.5488935 50.12651161 10.55767812 56.40350244 10.56275821 62.68057609 C10.56640026 66.6029269 10.57263959 70.52526492 10.5797596 74.44761086 C10.59921656 85.31571502 10.61572859 96.18380615 10.61863613 107.05192852 C10.61891749 108.09467606 10.61891749 108.09467606 10.61920452 109.15848922 C10.61957077 110.56765576 10.61993447 111.97682231 10.62029564 113.38598885 C10.62056985 114.43520391 10.62056985 114.43520391 10.62084961 115.50561523 C10.62103016 116.20594971 10.62121071 116.90628418 10.62139673 117.62784091 C10.62493654 128.96960664 10.65194768 140.31118229 10.6893475 151.65288212 C10.72747214 163.30804992 10.74635328 174.96311439 10.74709564 186.61834556 C10.74788846 193.15797912 10.75662969 199.6973675 10.78509331 206.2369442 C10.81127729 212.39053738 10.81347677 218.54368219 10.79743767 224.69730568 C10.79562339 226.95231225 10.80231188 229.20734461 10.81825638 231.46229553 C10.83874299 234.54848624 10.82814891 237.63311206 10.81004333 240.71928406 C10.8232433 241.60500884 10.83644327 242.49073363 10.85004324 243.40329856 C10.75202736 250.7523896 8.47640855 257.3117169 3.41060442 262.77098292 C-3.48349822 269.08688163 -9.87503439 270.46083326 -19.09765625 270.26171875 C-25.88651108 269.50342727 -29.87646048 266.77588327 -34.6171875 262.03515625 C-39.49928882 254.92123719 -41.39912807 249.6033426 -41.31262207 240.9420166 C-41.31886203 239.97302382 -41.325102 239.00403104 -41.33153105 238.00567484 C-41.34742697 234.7737146 -41.33486977 231.5425121 -41.32226562 228.31054688 C-41.32768823 225.98739687 -41.33481167 223.6642503 -41.34350586 221.34111023 C-41.36172541 215.04157501 -41.35467712 208.74230212 -41.34198952 202.44276237 C-41.33288261 196.51568052 -41.33983789 190.58863092 -41.3456983 184.6615482 C-41.35709286 172.20716388 -41.34400811 159.75289751 -41.32249683 147.29853255 C-41.30462683 136.62197698 -41.30773125 125.9455954 -41.32617188 115.26904297 C-41.34759853 102.85793683 -41.35599433 90.44693395 -41.34372282 78.0358119 C-41.33749016 71.47063489 -41.33664618 64.90557762 -41.34986877 58.34040833 C-41.36143235 52.16792192 -41.35339172 45.99576375 -41.33029175 39.82331276 C-41.32500745 37.55941627 -41.32651362 35.29549211 -41.33534241 33.03160667 C-41.34629205 29.93846482 -41.33254035 26.84637118 -41.31262207 23.7532959 C-41.3260064 22.41320331 -41.3260064 22.41320331 -41.33966112 21.04603815 C-41.25308725 14.10286142 -39.34380527 9.04382643 -35.0234375 3.60546875 C-34.45625 3.06664062 -33.8890625 2.5278125 -33.3046875 1.97265625 C-32.7375 1.41835937 -32.1703125 0.8640625 -31.5859375 0.29296875 C-22.83515102 -6.8074501 -8.92635336 -6.07049433 0 0 Z " fill="#1BA0D7" transform="translate(290.8046875,161.15234375)"/>
<path d="M0 0 C3.05621411 1.04617947 6.13865559 1.98732467 9.23339844 2.91259766 C22.99414681 7.1590786 36.70669995 11.55870804 50.42041016 15.95410156 C57.39323306 18.18690558 64.37359102 20.39241785 71.36547852 22.56469727 C74.89255605 23.66313922 78.41471451 24.77663856 81.93606567 25.89328003 C91.66002341 28.97538582 101.40372587 31.98909079 111.15771484 34.97457886 C129.6597921 40.64081698 148.14785892 46.34935307 166.48339844 52.53759766 C172.24132028 54.47411845 178.03771745 56.21516195 183.87036133 57.90771484 C194.75887507 61.07733748 205.56667432 64.51046774 216.3059082 68.15307617 C223.72385524 70.66830595 231.16002379 72.91536345 238.72265625 74.95361328 C244.92020096 76.64409824 251.00196084 78.60827928 257.07617188 80.6965332 C261.43021282 82.19042626 265.78318288 83.47587351 270.23339844 84.66259766 C282.87912943 88.53145594 293.91673631 96.78807784 300.44824219 108.31884766 C304.9242007 116.86978169 307.79010076 124.05620124 307.73736572 133.71125793 C307.7404857 134.5920817 307.74360569 135.47290547 307.74682021 136.38042086 C307.75478431 139.32586664 307.74848265 142.27110549 307.7421875 145.21655273 C307.74489812 147.33088807 307.74845946 149.44522245 307.75280762 151.55955505 C307.76192704 157.29931396 307.75838872 163.03900098 307.75204945 168.77876115 C307.74698519 174.78835636 307.75168227 180.79794543 307.75482178 186.80754089 C307.75846101 196.90287378 307.7536643 206.99817741 307.74414062 217.09350586 C307.73326501 228.75641631 307.73677535 240.41925679 307.74779344 252.08216554 C307.75687806 262.10018474 307.75814557 272.11818291 307.7529161 282.1362049 C307.74980173 288.11734805 307.74937224 294.09845835 307.75598907 300.07959938 C307.76177865 305.70615845 307.75773607 311.33262763 307.74620056 316.95917702 C307.74356222 319.02108613 307.74430491 321.08300284 307.74872589 323.14490891 C307.75421565 325.96603594 307.74730561 328.78687745 307.73736572 331.60798645 C307.74182717 332.41812299 307.74628861 333.22825953 307.75088525 334.06294566 C307.66737018 346.33894016 303.80846675 357.61558663 295.35839844 366.72509766 C286.03439942 375.41803075 273.99483003 379.72882349 261.36621094 379.36572266 C252.40954959 378.70116004 243.78693167 375.50482195 235.29492188 372.75634766 C232.78436801 371.94711043 230.26771853 371.17022337 227.74121094 370.41259766 C207.07336404 364.19351283 207.07336404 364.19351283 203.48339844 359.85009766 C202.86036811 356.46793303 203.36689707 355.05980012 205.04589844 352.03759766 C207.48339844 349.85009766 207.48339844 349.85009766 210.68652344 349.58056641 C214.68775054 349.86460413 217.87164516 350.70200752 221.67089844 351.97509766 C223.06756128 352.43357105 224.46472285 352.89052711 225.86230469 353.34619141 C226.6023877 353.58966309 227.3424707 353.83313477 228.10498047 354.08398438 C232.41777817 355.47318158 236.76468076 356.74906127 241.10839844 358.03759766 C242.76752566 358.53016844 244.42639361 359.02361363 246.08496094 359.51806641 C246.84953613 359.74461914 247.61411133 359.97117187 248.40185547 360.20458984 C250.14613465 360.7455087 251.86578271 361.36500089 253.57714844 362.00244141 C260.50763589 364.02383358 270.51747933 364.31755312 277.10839844 361.16259766 C278.88369583 360.07682141 278.88369583 360.07682141 280.48339844 358.85009766 C281.55589844 358.08697266 282.62839844 357.32384766 283.73339844 356.53759766 C288.89908948 351.48930868 291.36623908 346.21595451 291.61761951 338.99407673 C291.62703031 337.39323384 291.63092654 335.79235305 291.63056946 334.19148254 C291.63608449 332.86668484 291.63608449 332.86668484 291.64171094 331.51512355 C291.65274165 328.54970866 291.65659058 325.58432882 291.66040039 322.61889648 C291.66666549 320.49500416 291.67331233 318.37111293 291.68031311 316.2472229 C291.70134981 309.26719933 291.7117149 302.28717555 291.72167969 295.30712891 C291.72572734 292.90393245 291.72984426 290.50073612 291.73402977 288.0975399 C291.7530803 276.80746097 291.76731182 265.51738857 291.77564174 254.22729665 C291.78541509 241.19608327 291.81173791 228.1650397 291.85214263 215.13388616 C291.88230372 205.06071065 291.89711061 194.98758383 291.90042275 184.91436404 C291.90277317 178.89847352 291.91173289 172.88276445 291.93688393 166.86692238 C291.96016942 161.20586196 291.96439578 155.54510241 291.95412254 149.8840065 C291.9536272 147.80918693 291.95994717 145.73435252 291.97367859 143.65957832 C291.99141278 140.82057039 291.98428369 137.98264046 291.97114563 135.14363098 C291.98211488 134.32823925 291.99308412 133.51284752 292.00438577 132.67274696 C291.89626685 122.95377272 287.20391819 114.70010719 280.48339844 107.85009766 C270.00014442 99.57976667 255.68875285 96.50310013 243.09417725 92.77035522 C230.96813076 89.17236041 218.89173471 85.4341297 206.85839844 81.53759766 C205.02257202 80.94362183 205.02257202 80.94362183 203.1496582 80.33764648 C198.27054159 78.75230788 193.39418693 77.1604347 188.53295898 75.52099609 C182.24234425 73.40052564 175.9886102 71.33396381 169.54589844 69.72509766 C165.85044708 68.80021171 162.27301947 67.80975676 158.72167969 66.43994141 C153.7660546 64.53086088 148.69629293 63.05021494 143.60839844 61.53759766 C136.40290163 59.37330503 129.23246724 57.14426498 122.10839844 54.72509766 C116.6198442 52.86313631 111.11890529 51.12853479 105.54589844 49.53759766 C98.0936314 47.40609855 90.76276476 44.95786686 83.42089844 42.47509766 C73.91078732 39.26677993 64.36980275 36.28633878 54.72167969 33.5234375 C47.07534178 31.32917176 39.45914342 29.04519916 31.85858154 26.69799805 C29.96954922 26.11510956 28.07927191 25.53626067 26.18896484 24.95751953 C25.02671387 24.59722656 23.86446289 24.23693359 22.66699219 23.86572266 C21.6414624 23.54893555 20.61593262 23.23214844 19.55932617 22.90576172 C16.48339844 21.85009766 16.48339844 21.85009766 13.0546875 20.36328125 C9.45917446 18.83983377 5.91098787 17.7005087 2.15917969 16.62353516 C1.49049362 16.43038727 0.82180756 16.23723938 0.13285828 16.03823853 C-1.97827278 15.42963 -4.09114914 14.82734831 -6.20410156 14.22509766 C-7.63195074 13.81403789 -9.05968618 13.40258283 -10.48730469 12.99072266 C-25.40494408 8.2149208 -25.40494408 8.2149208 -40.46972656 10.68603516 C-48.03033019 14.98576775 -53.08131338 20.47939316 -55.51660156 28.85009766 C-56.08793438 34.31142632 -56.04067005 39.74763265 -55.99902344 45.23022461 C-56.00121213 46.8802167 -56.00521317 48.53020723 -56.01087952 50.18019104 C-56.01941123 53.71767455 -56.01570856 57.25485388 -56.00245667 60.79232216 C-55.98205714 66.38526401 -55.99212285 71.97790162 -56.00671387 77.57084656 C-56.03341652 89.43479123 -56.02673968 101.29863585 -56.01660156 113.16259766 C-56.00565242 125.98920645 -56.0003774 138.81565837 -56.03389597 151.64224023 C-56.0472812 157.20345267 -56.0412949 162.76420718 -56.0205307 168.32539237 C-56.01156112 171.77928076 -56.0190031 175.2329915 -56.03094292 178.68686485 C-56.03307782 180.28969291 -56.02832858 181.89254694 -56.01623726 183.49533081 C-56.00067368 185.68127148 -56.00956351 187.86579855 -56.02453613 190.05171204 C-56.02302803 191.27522527 -56.02151993 192.4987385 -56.01996613 193.75932789 C-56.61377221 197.45483121 -57.54638649 198.63787245 -60.51660156 200.85009766 C-63.51660156 201.35009766 -63.51660156 201.35009766 -66.51660156 200.85009766 C-69.50364176 198.63074312 -70.42127035 197.44413535 -71.01717281 193.73088646 C-71.0173821 192.49392336 -71.01759138 191.25696026 -71.01780701 189.98251343 C-71.0233414 189.29194749 -71.0288758 188.60138154 -71.03457791 187.88988936 C-71.04819049 185.57596631 -71.03321269 183.26312086 -71.01831055 180.94921875 C-71.02209374 179.28999371 -71.02759378 177.63077182 -71.03468323 175.97155762 C-71.04866171 171.46286846 -71.03744844 166.95455994 -71.02097201 162.44589186 C-71.00712288 157.72333443 -71.01358197 153.00079916 -71.0171051 148.27822876 C-71.01980892 140.34069694 -71.00632231 132.40331618 -70.9831543 124.46582031 C-70.95659842 115.30455529 -70.95477934 106.14354371 -70.96654266 96.98225343 C-70.97734871 88.15948854 -70.97110767 79.33681484 -70.95698738 70.51405716 C-70.95124652 66.76549739 -70.95129542 63.01700476 -70.95605278 59.26844406 C-70.96084933 54.84426915 -70.95061067 50.42036906 -70.92909813 45.99624634 C-70.92356436 44.37822013 -70.92303337 42.76016733 -70.92805099 41.14213943 C-70.96740502 26.62319786 -69.01977103 15.58714605 -58.52832031 4.80712891 C-40.77276811 -11.36249048 -20.84835841 -7.18438121 0 0 Z " fill="#1EA1D8" transform="translate(112.5166015625,22.14990234375)"/>
<path d="M0 0 C6.62519446 3.38383588 12.15592978 7.85794202 15.4507122 14.6511879 C17.46353276 21.15899215 16.87382439 28.32391385 16.84594727 35.07763672 C16.853011 36.87538357 16.86175793 38.67312447 16.87205505 40.47085571 C16.89450945 45.33876468 16.8916183 50.20634789 16.88273358 55.07428885 C16.87761381 59.14473766 16.88492441 63.21512579 16.89220566 67.28556836 C16.90919261 76.89209328 16.90565149 86.49845933 16.88891602 96.10498047 C16.87199976 106.00032017 16.88782521 115.89521856 16.9201389 125.79051006 C16.94687078 134.30034447 16.95410096 142.81004182 16.94562382 151.31991398 C16.94070463 156.3962662 16.94285544 161.47235303 16.96341133 166.54867172 C16.98182469 171.32430469 16.97574083 176.09930523 16.95121193 180.87490463 C16.94622174 182.62194507 16.94964699 184.36903416 16.96236038 186.11603546 C17.03057225 196.29931295 16.91778388 205.46898294 9.53908634 213.32583427 C3.83010649 218.64055605 -2.22727757 221.09440597 -9.9375 221.6875 C-16.99170213 221.21721986 -22.88148898 219.16637764 -28.1171875 214.3203125 C-33.50567888 207.85948453 -35.80777314 200.56754815 -35.83467102 192.30380249 C-35.84018605 191.20692358 -35.84018605 191.20692358 -35.8458125 190.0878855 C-35.85685009 187.63068613 -35.86069333 185.17352905 -35.86450195 182.71630859 C-35.87076664 180.95709092 -35.87741345 179.19787457 -35.88441467 177.43865967 C-35.90546009 171.65442833 -35.91581878 165.87019671 -35.92578125 160.0859375 C-35.92982889 158.09414277 -35.93394581 156.10234818 -35.93813133 154.11055374 C-35.95718552 144.75118431 -35.97141503 135.39182278 -35.9797433 126.03243768 C-35.9895114 115.23344839 -36.01581883 104.43466431 -36.05624419 93.63574731 C-36.08642474 85.28656891 -36.1012141 76.93744926 -36.10452431 68.58821738 C-36.10687296 63.60293261 -36.11580901 58.61786702 -36.14098549 53.63264084 C-36.16430452 48.9392702 -36.16848403 44.24626242 -36.15822411 39.55284882 C-36.15772954 37.83440314 -36.16402668 36.11593938 -36.17778015 34.39754868 C-36.2634111 23.06011311 -35.58053884 13.69561694 -27.50390625 5.01171875 C-19.5122983 -1.91434147 -9.90505727 -3.91436971 0 0 Z " fill="#21A2D8" transform="translate(210.6875,187.5625)"/>
<path d="M0 0 C7.13227291 5.84194123 11.27396885 12.03304238 12.25280952 21.35047722 C12.37395844 24.46074469 12.40450749 27.55899381 12.40063477 30.67163086 C12.4107106 31.84681778 12.42078644 33.0220047 12.4311676 34.23280334 C12.45953902 38.09670664 12.46551834 41.96021794 12.46875 45.82421875 C12.4730254 47.16284416 12.47781425 48.50146802 12.48310661 49.8400898 C12.51078908 56.84777803 12.52312053 63.855296 12.52075195 70.86303711 C12.51894946 77.37020396 12.55062598 83.87662488 12.59798294 90.38360304 C12.63733824 95.99327149 12.65329841 101.60269726 12.65138572 107.21250254 C12.65062475 110.55316705 12.66175768 113.89264 12.69091988 117.2332592 C12.72043014 120.96203902 12.7116467 124.68891179 12.69360352 128.41772461 C12.71046204 129.50842255 12.72732056 130.59912048 12.74468994 131.72286987 C12.64063518 140.217511 10.04939009 146.37779065 4.11612797 152.52464199 C-2.50413784 158.6275206 -8.64797791 160.24073529 -17.55859375 160.015625 C-25.46103514 159.09219365 -30.35023951 154.81483804 -35.52734375 149.0625 C-40.0532014 141.69918756 -40.47464751 134.18577378 -40.43920898 125.73071289 C-40.44607224 124.57503311 -40.45293549 123.41935333 -40.46000671 122.22865295 C-40.47822447 118.4296521 -40.47444427 114.63106618 -40.46875 110.83203125 C-40.47215933 108.84979591 -40.47557737 106.86756038 -40.48010308 104.88532728 C-40.49410809 98.66024126 -40.49262068 92.43529259 -40.48120117 86.21020508 C-40.46972311 79.81225472 -40.48379916 73.41472372 -40.51059765 67.0168286 C-40.53282844 61.50058313 -40.53937554 55.98446859 -40.53352123 50.46818155 C-40.53016805 47.18370308 -40.53419113 43.89955077 -40.54977226 40.61509895 C-40.56471558 36.94889609 -40.55397923 33.2836067 -40.53686523 29.61743164 C-40.5465332 28.54543518 -40.55620117 27.47343872 -40.56616211 26.36895752 C-40.48821096 18.35962706 -38.88759825 11.55574321 -34.140625 4.98828125 C-24.72420383 -3.92951069 -11.74549046 -7.78658213 0 0 Z " fill="#1EA2D8" transform="translate(141.03515625,219.390625)"/>
<path d="M0 0 C3.26627962 2.12567404 6.23969188 4.47938376 8 8 C8.10701668 10.98469487 8.1522211 13.94651509 8.15390015 16.93182373 C8.1582824 17.86851623 8.16266465 18.80520873 8.1671797 19.77028584 C8.18060075 22.92856493 8.18675397 26.08681609 8.19287109 29.24511719 C8.20076943 31.50165942 8.20903821 33.75820038 8.21765137 36.01473999 C8.24390155 43.442106 8.25918153 50.86947774 8.2734375 58.296875 C8.27879586 60.85057835 8.28417336 63.40428166 8.28956985 65.95798492 C8.31120255 76.57805775 8.33009193 87.19812923 8.34119225 97.81821823 C8.34412199 100.57477574 8.34708364 103.33133321 8.35009766 106.08789062 C8.35084371 106.77302716 8.35158976 107.45816369 8.35235842 108.16406193 C8.36501216 119.26298568 8.39823492 130.36174923 8.43989949 141.46059808 C8.48231752 152.85348284 8.50547945 164.24625585 8.51111281 175.63923001 C8.51477175 182.0368316 8.52685107 188.4341617 8.55921555 194.83168793 C8.58922361 200.84978751 8.59563371 206.8674503 8.58383179 212.88560867 C8.58361045 215.09553528 8.59196502 217.30548173 8.60948563 219.5153389 C8.63209392 222.53083582 8.62392039 225.54473772 8.60800171 228.5602417 C8.6218838 229.43631852 8.63576588 230.31239534 8.65006864 231.21501994 C8.59472558 235.46520336 8.2777489 238.19948195 5.58699989 241.58998489 C3 244 3 244 1 244 C1 244.66 1 245.32 1 246 C-4.22971874 246.31378312 -7.58573719 245.90940049 -12 243 C-15.65127235 238.49270417 -15.42336272 234.27164237 -15.38095093 228.73864746 C-15.3856309 227.80276968 -15.39031087 226.86689189 -15.39513266 225.90265417 C-15.40710368 222.76503698 -15.39761704 219.62785485 -15.38818359 216.49023438 C-15.39224835 214.24147791 -15.39758969 211.99272345 -15.40411377 209.74397278 C-15.41780451 203.63457415 -15.41248139 197.5253273 -15.40297651 191.41592598 C-15.39538907 185.02675081 -15.40242298 178.63758876 -15.40713501 172.24841309 C-15.41294512 160.83069015 -15.40361345 149.41305138 -15.388357 137.99534267 C-15.37495383 127.64415904 -15.37728194 117.29307634 -15.39111328 106.94189453 C-15.40716982 94.91978833 -15.41314283 82.89775836 -15.40427649 70.87563753 C-15.39959581 64.51229713 -15.39898602 58.14902626 -15.40888596 51.78569031 C-15.41754224 45.80372371 -15.41155803 39.821948 -15.39420319 33.84000206 C-15.39023121 31.64257309 -15.39138449 29.44512809 -15.39799118 27.24770546 C-15.40616849 24.25203647 -15.39593094 21.25698219 -15.38095093 18.26135254 C-15.38764309 17.38830019 -15.39433526 16.51524783 -15.40123022 15.61573935 C-15.34156322 9.47937822 -14.11293294 6.17162552 -9.75 1.6875 C-6.09227429 -0.55701351 -4.23122736 -0.72952196 0 0 Z " fill="#F8FBFD" transform="translate(279,171)"/>
<path d="M0 0 C6.9361789 4.74991613 9.95966475 9.85338446 12 18 C12.26069641 21.32479858 12.26069641 21.32479858 12.2746582 24.80224609 C12.28895622 26.76996475 12.28895622 26.76996475 12.30354309 28.7774353 C12.3032816 30.19276964 12.30234426 31.608104 12.30078125 33.0234375 C12.30467476 34.49402994 12.30901077 35.96462127 12.31376648 37.43521118 C12.32120424 40.50990451 12.32095544 43.58448297 12.31567383 46.65917969 C12.3098853 50.57842271 12.32680683 54.49719221 12.3500185 58.41635704 C12.36482825 61.45175882 12.36561771 64.48704849 12.36250877 67.52248001 C12.36301845 68.96641603 12.36818901 70.41035892 12.37832069 71.85425949 C12.4508791 83.64059588 11.64472878 92.3096889 3.3046875 101.046875 C-2.27094639 105.77198847 -8.65641706 107.64072621 -15.90625 107.2578125 C-24.48347764 106.20166134 -30.03557105 102.41131999 -35.60546875 96.07421875 C-39.20910255 90.71419201 -40.37605906 86.14441033 -40.40405273 79.72290039 C-40.41091599 79.03247147 -40.41777924 78.34204254 -40.42485046 77.63069153 C-40.44301267 75.36946502 -40.43929646 73.10893938 -40.43359375 70.84765625 C-40.43816068 69.26256589 -40.44346777 67.67747751 -40.44947815 66.09239197 C-40.45838848 62.7780653 -40.45601002 59.46397987 -40.44604492 56.1496582 C-40.43455811 51.91854684 -40.45477224 47.68827045 -40.48396206 43.45726871 C-40.50237614 40.18597696 -40.5020213 36.9148834 -40.49632454 33.64355278 C-40.49617196 32.0843533 -40.5021637 30.52513983 -40.51461601 28.96599007 C-40.58346144 18.93365319 -40.31264197 10.79976722 -32.875 3.25 C-23.17028469 -5.8118816 -11.28693974 -6.06323209 0 0 Z " fill="#1FA2D8" transform="translate(67,242)"/>
<path d="M0 0 C3.28991462 1.29038336 5.14160971 2.99593253 7 6 C8.07322739 11.69101439 7.93682138 17.33569918 7.87402344 23.109375 C7.88023718 24.87391412 7.88945891 26.63844484 7.90145874 28.4029541 C7.92480992 33.18836631 7.90423977 37.97267106 7.8744154 42.75801086 C7.84923053 47.76804146 7.85981981 52.77801265 7.86529541 57.78808594 C7.86887952 66.20135432 7.84433715 74.61418479 7.80273438 83.02734375 C7.75495725 92.75121333 7.74970013 102.47439048 7.7676847 112.19834518 C7.7841646 121.55619023 7.77231569 130.91378771 7.74695587 140.27160645 C7.73655871 144.25237344 7.73575343 148.23297158 7.74260712 152.21374512 C7.7492684 156.90241017 7.73101242 161.59034038 7.69359207 166.27885437 C7.68379388 167.99852287 7.68245522 169.71826369 7.69023514 171.4379425 C7.69943221 173.78788759 7.67778623 176.13561736 7.64837646 178.48535156 C7.6438937 179.79940979 7.63941093 181.11346802 7.63479233 182.46734619 C6.80446876 187.08814198 5.28416915 188.7052101 2 192 C-1.20367853 193.60183927 -4.52376994 193.49374477 -8 193 C-11.27981751 190.93228896 -12.84746007 189.22880989 -15 186 C-15.26006222 182.85210705 -15.26006222 182.85210705 -15.27415466 178.88407898 C-15.27939134 178.15479323 -15.28462802 177.42550748 -15.29002339 176.67412215 C-15.30505799 174.2236924 -15.30572929 171.77347081 -15.30639648 169.32299805 C-15.3140157 167.56876267 -15.32244279 165.81453065 -15.33161926 164.06030273 C-15.35359581 159.2895621 -15.3623675 154.51888558 -15.36744571 149.74810004 C-15.37108583 146.76819899 -15.37732412 143.78831481 -15.3844471 140.80842018 C-15.40895344 130.41434616 -15.42199586 120.02032213 -15.42553711 109.6262207 C-15.42917236 99.93485644 -15.45906398 90.24380889 -15.50094169 80.55254143 C-15.53562502 72.23482287 -15.55108522 63.91720934 -15.55178314 55.59941894 C-15.55257669 50.63039853 -15.56135064 45.66170051 -15.58978081 40.69275475 C-15.6159276 36.01819435 -15.61818568 31.34422438 -15.60212517 26.66962433 C-15.60030791 24.95475542 -15.60702635 23.23985283 -15.62294388 21.52505684 C-15.64336882 19.18162883 -15.6328763 16.84027357 -15.61473083 14.49687195 C-15.61674216 13.18629161 -15.61875349 11.87571127 -15.62082577 10.52541637 C-14.80673886 5.9025488 -13.28422696 4.29357993 -10 1 C-6.70947657 -0.64526172 -3.54290487 -0.60494623 0 0 Z " fill="#FCFDFE" transform="translate(205,201)"/>
<path d="M0 0 C2.82424288 2.19022918 4.41508603 3.83017207 6 7 C6.10303763 8.57007065 6.14379825 10.14441891 6.15390015 11.71783447 C6.16250061 12.71319717 6.17110107 13.70855988 6.17996216 14.73408508 C6.18422211 15.83020615 6.18848206 16.92632721 6.19287109 18.05566406 C6.20104858 19.20699326 6.20922607 20.35832245 6.21765137 21.54454041 C6.24253655 25.36822992 6.25902926 29.19188224 6.2734375 33.015625 C6.27876118 34.31917686 6.28408485 35.62272873 6.28956985 36.96578217 C6.31119996 42.44398169 6.32993566 47.92217827 6.34119225 53.4004097 C6.35742457 61.24838763 6.39058243 69.0958699 6.44759309 76.94366097 C6.48631987 82.46307004 6.50582822 87.98234669 6.51111281 93.50188804 C6.51476317 96.79765981 6.52925297 100.09278216 6.55921555 103.38843536 C6.59076238 107.06826095 6.59091868 110.74683303 6.58349609 114.42675781 C6.59990143 115.51478195 6.61630676 116.60280609 6.63320923 117.72380066 C6.56509278 125.9667573 6.56509278 125.9667573 3.58853149 129.66082764 C0.04781468 132.86045914 -2.07964208 133.39445616 -6.89453125 133.359375 C-10.61593453 132.72418186 -12.40312849 130.66020984 -15 128 C-16.21781599 125.56436802 -16.1311236 123.99828216 -16.14044189 121.2754364 C-16.14615204 120.27862854 -16.15186218 119.28182068 -16.15774536 118.25480652 C-16.15886322 117.15711441 -16.15998108 116.0594223 -16.16113281 114.9284668 C-16.16609772 113.77553131 -16.17106262 112.62259583 -16.17617798 111.4347229 C-16.19082826 107.60621553 -16.19760646 103.77774959 -16.203125 99.94921875 C-16.20742195 97.96623011 -16.2117194 95.98324148 -16.2160995 94.00025302 C-16.22791602 88.47320323 -16.23544969 82.94616351 -16.2388947 77.41910237 C-16.24337402 70.2718151 -16.26091491 63.12471921 -16.2898953 55.97749013 C-16.3115179 50.45299726 -16.32159931 44.9285582 -16.32293582 39.40402347 C-16.32398359 36.10454182 -16.33133057 32.80528097 -16.34775543 29.50583458 C-16.36477668 25.8236472 -16.36294493 22.14192736 -16.35644531 18.4597168 C-16.3656601 17.36809738 -16.37487488 16.27647797 -16.3843689 15.15177917 C-16.33267159 5.8200884 -16.33267159 5.8200884 -13 2 C-8.7741215 -0.81725233 -4.96375312 -0.79958384 0 0 Z " fill="#FDFEFE" transform="translate(132,231)"/>
<path d="M0 0 C3.44186104 0.0383037 4.63382591 0.2432899 7.6875 2.0625 C11.44954093 6.16654465 12.0060088 9.17094087 12.07226562 14.71411133 C12.09148071 16.01258499 12.1106958 17.31105865 12.13049316 18.64888 C12.14019022 20.06408991 12.14874761 21.47930801 12.15625 22.89453125 C12.16776305 24.35178123 12.17927838 25.80903119 12.1907959 27.26628113 C12.21178357 30.32019454 12.22348967 33.37400318 12.23046875 36.42797852 C12.24142832 40.32887668 12.28946942 44.228375 12.34641266 48.12883472 C12.38378494 51.13929706 12.39408276 54.14942628 12.3971405 57.16010094 C12.40316875 58.597385 12.41914253 60.03466493 12.44551086 61.47171974 C12.66056885 74.09384078 12.66056885 74.09384078 8.87133789 78.69726562 C6.88601279 80.62210828 5.8331781 81.28610815 3.15234375 82.13671875 C-1.0390297 81.90423369 -3.63372133 81.67723636 -7.3125 79.5 C-10.58020108 75.81066007 -10.39137817 72.55889121 -10.44287109 67.80908203 C-10.45104858 67.15343262 -10.45922607 66.4977832 -10.46765137 65.82226562 C-10.49244141 63.6549571 -10.50900323 61.48771371 -10.5234375 59.3203125 C-10.52876118 58.57909023 -10.53408485 57.83786797 -10.53956985 57.07418442 C-10.5662714 53.15216863 -10.58565734 49.23018437 -10.60009766 45.30810547 C-10.61344653 42.06432963 -10.64131933 38.82118146 -10.68212891 35.57763672 C-10.73144354 31.65781585 -10.75621654 27.73856496 -10.76332474 23.81844711 C-10.77003598 22.32649383 -10.78525506 20.83455322 -10.80921555 19.34277725 C-10.84087472 17.25274714 -10.84090501 15.16491443 -10.83349609 13.07470703 C-10.84158295 11.88684601 -10.8496698 10.69898499 -10.85800171 9.47512817 C-10.07604176 5.40762554 -8.35829008 3.94560732 -5.25 1.3125 C-3.69014791 -0.24735209 -2.16093902 0.06797656 0 0 Z " fill="#FCFDFE" transform="translate(52.25,252.6875)"/>
<path d="M0 0 C0.89396484 -0.01546875 1.78792969 -0.0309375 2.70898438 -0.046875 C6.94015014 -0.02174558 9.44507861 0.13782108 13.15234375 2.3125 C15.0625 4.5 15.0625 4.5 15.6875 8 C15.0625 11.5 15.0625 11.5 13.15234375 13.6875 C8.75727928 16.26564149 5.00428227 16.08659176 0 16 C-0.89783203 16.01546875 -1.79566406 16.0309375 -2.72070312 16.046875 C-9.21124415 16.00826955 -9.21124415 16.00826955 -12.52734375 13.6875 C-14.60845337 10.45918591 -14.47369276 8.25334933 -13.9375 4.5 C-10.51713493 -0.80582947 -5.70410935 -0.09827611 0 0 Z " fill="#20A2D8" transform="translate(337.9375,222.5)"/>
<path d="M0 0 C0.95003906 -0.01546875 1.90007812 -0.0309375 2.87890625 -0.046875 C9.76517738 -0.00813367 9.76517738 -0.00813367 13.12109375 2.3125 C15.178385 5.5761915 15.10559775 7.73183623 14.5 11.5 C12.32994541 13.98577975 10.56534116 15.30958066 7.27905273 15.89697266 C4.65335613 16.07480358 2.0687916 16.09475087 -0.5625 16.0625 C-1.46033203 16.08634766 -2.35816406 16.11019531 -3.28320312 16.13476562 C-9.81468202 16.12019727 -9.81468202 16.12019727 -13.08984375 13.15625 C-14.81242057 9.91150695 -15.11651001 8.12199631 -14.5 4.5 C-11.02004083 -0.94732245 -5.81296903 -0.09464807 0 0 Z " fill="#22A3D8" transform="translate(338.5,185.5)"/>
<path d="M0 0 C0.95003906 -0.01546875 1.90007812 -0.0309375 2.87890625 -0.046875 C9.7755622 -0.00807525 9.7755622 -0.00807525 13.12890625 2.34375 C14.99961942 5.28572627 14.99949717 7.07487653 14.5 10.5 C12.72015595 13.6359157 11.97691793 14.34102736 8.5 15.5 C5.54640515 15.77320187 2.58987901 15.77714771 -0.375 15.8125 C-1.17808594 15.84150391 -1.98117187 15.87050781 -2.80859375 15.90039062 C-6.8435191 15.94359823 -8.9917271 15.80156217 -12.53515625 13.69921875 C-14.5 11.5 -14.5 11.5 -15.0625 8 C-14.5 4.5 -14.5 4.5 -13.12109375 2.3125 C-8.99120388 -0.54334039 -4.89918272 -0.0797696 0 0 Z " fill="#21A2D8" transform="translate(338.5,148.5)"/>
<path d="M0 0 C1.44729492 -0.00580078 1.44729492 -0.00580078 2.92382812 -0.01171875 C4.43299805 0.00568359 4.43299805 0.00568359 5.97265625 0.0234375 C6.97490234 0.01183594 7.97714844 0.00023437 9.00976562 -0.01171875 C9.97591797 -0.00785156 10.94207031 -0.00398438 11.9375 0 C13.25995728 0.00507568 13.25995728 0.00507568 14.60913086 0.01025391 C17.54816436 0.48052293 18.92718735 1.31365957 21.03515625 3.3984375 C21.49451297 7.0076689 21.60695017 9.36978195 19.81811523 12.58789062 C18.03515625 14.3984375 18.03515625 14.3984375 15.73852539 14.91601562 C14.85801514 14.92052734 13.97750488 14.92503906 13.0703125 14.9296875 C11.62301758 14.93742187 11.62301758 14.93742187 10.14648438 14.9453125 C8.63731445 14.92210937 8.63731445 14.92210937 7.09765625 14.8984375 C5.59428711 14.92164063 5.59428711 14.92164063 4.06054688 14.9453125 C-3.21650241 14.90647568 -3.21650241 14.90647568 -6.62890625 12.58984375 C-8.58133697 9.3871723 -8.43179834 7.06736646 -7.96484375 3.3984375 C-5.67998081 0.22575519 -3.79791553 0.01459534 0 0 Z " fill="#1EA1D8" transform="translate(331.96484375,334.6015625)"/>
<path d="M0 0 C1.44729492 -0.00580078 1.44729492 -0.00580078 2.92382812 -0.01171875 C4.43299805 0.00568359 4.43299805 0.00568359 5.97265625 0.0234375 C6.97490234 0.01183594 7.97714844 0.00023437 9.00976562 -0.01171875 C9.97591797 -0.00785156 10.94207031 -0.00398438 11.9375 0 C13.25995728 0.00507568 13.25995728 0.00507568 14.60913086 0.01025391 C17.5483797 0.48055738 18.92485583 1.31611398 21.03515625 3.3984375 C21.57854785 7.13425475 21.69066546 9.37329393 19.62890625 12.59765625 C15.62269694 15.37907566 11.79057764 14.90251322 7.03515625 14.7734375 C6.1328125 14.77214844 5.23046875 14.77085937 4.30078125 14.76953125 C-3.36857191 14.66742448 -3.36857191 14.66742448 -6.96484375 12.3984375 C-7.6796875 10.33984375 -7.6796875 10.33984375 -7.90234375 7.9609375 C-7.99386719 7.17847656 -8.08539063 6.39601563 -8.1796875 5.58984375 C-7.96484375 3.3984375 -7.96484375 3.3984375 -6.76171875 1.78637695 C-4.4002383 -0.03767418 -2.96402387 0.0113907 0 0 Z " fill="#1CA1D8" transform="translate(331.96484375,297.6015625)"/>
<path d="M0 0 C0.89783203 -0.01160156 1.79566406 -0.02320313 2.72070312 -0.03515625 C9.17822638 -0.00634945 9.17822638 -0.00634945 12.53515625 1.6796875 C13.9375 3.375 13.9375 3.375 14.3125 6.875 C13.9375 10.375 13.9375 10.375 11.9375 13.375 C7.63982163 14.80755946 3.50267888 14.63970086 -1 14.6875 C-1.90685547 14.71650391 -2.81371094 14.74550781 -3.74804688 14.77539062 C-10.39279347 14.83895332 -10.39279347 14.83895332 -13.65625 12.578125 C-15.73401092 9.32296623 -15.67872056 7.14079233 -15.0625 3.375 C-10.62784105 -0.55985108 -5.59721306 -0.07263867 0 0 Z " fill="#1EA1D8" transform="translate(339.0625,260.625)"/>
</svg>
