<?xml version="1.0" encoding="UTF-8"?>
<svg version="1.1" xmlns="http://www.w3.org/2000/svg" width="512" height="512">
<path d="M0 0 C16.49871815 13.10667727 26.16768761 30.25887163 30.02734375 50.8203125 C30.41166064 54.67615115 30.02126143 58.09968983 29.6328125 61.94921875 C29.35843969 67.97489479 30.52313195 71.45262735 34.57324219 75.94506836 C36.91005396 78.29135016 39.30232256 80.56754257 41.73779297 82.81103516 C44.01905447 84.99614375 45.9403508 87.39964162 47.8828125 89.88671875 C52.43926034 95.57807518 57.39073471 100.85084157 62.375 106.1640625 C65.22828028 109.20808888 67.99469259 112.31638752 70.71875 115.4765625 C72.69821376 117.74876386 74.7286442 119.97131747 76.7578125 122.19921875 C79.83028023 125.59755427 82.76723872 129.06262398 85.6328125 132.63671875 C90.29107379 138.39825245 95.31567298 143.76980202 100.37890625 149.171875 C102.64405095 151.58909902 104.88246393 154.02388148 107.0703125 156.51171875 C107.59753906 157.10726562 108.12476563 157.7028125 108.66796875 158.31640625 C110.02922897 159.95984114 111.31272183 161.66763143 112.56640625 163.39453125 C117.61333859 170.20376997 121.66616795 173.47897958 130.13671875 175.484375 C139.97091857 178.21806953 147.59159645 185.22978389 152.84765625 193.765625 C157.33309158 202.0734313 158.534564 209.94345341 158.4453125 219.3359375 C158.44242722 220.04316956 158.43954193 220.75040161 158.43656921 221.47906494 C158.42196507 224.42377274 158.40557854 227.3654514 158.31103516 230.30883789 C157.79577763 239.17606182 157.79577763 239.17606182 161.52197266 246.80737305 C164.06829034 248.55770253 166.63487018 249.9814839 169.3828125 251.38671875 C176.93820833 258.31440043 182.64751207 267.16185547 183.5784893 277.5755043 C183.66264815 280.08469166 183.68731989 282.58753704 183.68920898 285.09814453 C183.6975325 286.04698517 183.70585602 286.99582581 183.71443176 287.97341919 C183.73842319 291.09299885 183.74728808 294.21236929 183.75390625 297.33203125 C183.76287675 299.50723329 183.77199867 301.6824347 183.78126526 303.8576355 C183.79772534 308.40852354 183.80545067 312.95933823 183.80834961 317.51025391 C183.81374808 323.34243246 183.85150167 329.17392325 183.89709377 335.00590706 C183.92681685 339.49431897 183.93407205 343.98256373 183.93507576 348.47106552 C183.939283 350.62168421 183.95173735 352.77230318 183.97259331 354.92282486 C183.99942477 357.92709643 183.99470791 360.92975217 183.98217773 363.93408203 C184.00442917 365.26518005 184.00442917 365.26518005 184.02713013 366.62316895 C183.97481111 371.0243879 183.80131024 372.83828773 181.0506134 376.44300842 C177.473632 379.04913083 175.74220649 379.03432649 171.3828125 378.38671875 C168.43258053 377.34878011 165.70397893 375.99178703 162.9296875 374.5546875 C161.75663055 373.96606682 161.75663055 373.96606682 160.55987549 373.36555481 C158.91613372 372.53732804 157.27576837 371.70236968 155.63867188 370.86108398 C153.13387397 369.57476386 150.61898211 368.31023797 148.1015625 367.04882812 C146.50196995 366.23953358 144.90298948 365.42902786 143.3046875 364.6171875 C142.55467468 364.23894333 141.80466187 363.86069916 141.03192139 363.47099304 C140.33399475 363.1108461 139.63606812 362.75069916 138.91699219 362.37963867 C137.99935089 361.90997932 137.99935089 361.90997932 137.06317139 361.43083191 C133.91316738 359.47353537 132.56536904 357.93438837 131.3828125 354.38671875 C131.29392419 352.40829114 131.26520377 350.42695241 131.26928711 348.4465332 C131.26936264 347.22549393 131.26943817 346.00445465 131.26951599 344.74641418 C131.27467728 343.4275975 131.27983856 342.10878082 131.28515625 340.75 C131.2870217 339.38665316 131.288445 338.02330564 131.28944397 336.65995789 C131.29325918 333.07443384 131.30308095 329.4889504 131.31414795 325.90344238 C131.32438349 322.24357665 131.32900099 318.58370416 131.33398438 314.92382812 C131.34417324 307.74475582 131.36374738 300.56579498 131.3828125 293.38671875 C120.4928125 293.38671875 109.6028125 293.38671875 98.3828125 293.38671875 C98.40601563 297.8159375 98.42921875 302.24515625 98.453125 306.80859375 C98.46598848 310.34201952 98.47683354 313.87543867 98.48631287 317.40887451 C98.49687063 321.13786524 98.51097769 324.86676494 98.53369141 328.59570312 C98.5554344 332.18778637 98.56738419 335.77978138 98.57256699 339.37192535 C98.57626014 340.74184813 98.58347195 342.11176613 98.59427261 343.48165131 C98.60880599 345.40145654 98.60962958 347.32135071 98.60986328 349.24121094 C98.6143045 350.33375183 98.61874573 351.42629272 98.62332153 352.55194092 C98.38180485 355.39859547 97.93631152 357.01395584 96.3828125 359.38671875 C94.2824707 360.83129883 94.2824707 360.83129883 91.68359375 362.15625 C90.72831787 362.64963867 89.77304199 363.14302734 88.78881836 363.65136719 C87.25753296 364.41755371 87.25753296 364.41755371 85.6953125 365.19921875 C84.65834229 365.72676758 83.62137207 366.25431641 82.55297852 366.79785156 C79.50310435 368.34160042 76.44433668 369.86623368 73.3828125 371.38671875 C72.57231445 371.79519043 71.76181641 372.20366211 70.92675781 372.62451172 C68.89842094 373.6441011 66.86260686 374.6454452 64.8203125 375.63671875 C63.70527344 376.178125 62.59023438 376.71953125 61.44140625 377.27734375 C58.15421583 378.46963248 55.85018666 378.74810704 52.3828125 378.38671875 C49.68290588 376.58678101 47.840926 375.30294575 46.3828125 372.38671875 C46.26845677 369.46541289 46.21493956 366.56741894 46.20581055 363.64526367 C46.19923935 362.73926422 46.19266815 361.83326477 46.18589783 360.89981079 C46.1661253 357.88893554 46.15448779 354.87811048 46.14453125 351.8671875 C46.14045572 350.83715418 46.1363802 349.80712086 46.13218117 348.7458744 C46.11129451 343.28444239 46.09700921 337.82303562 46.08764648 332.36157227 C46.07663176 326.74426331 46.04229668 321.12735595 46.00247478 315.5101881 C45.97619287 311.17329728 45.96794396 306.83649995 45.96436501 302.49953651 C45.9595217 300.43089425 45.94797288 298.36225553 45.92932701 296.29369164 C45.78982739 279.77881886 46.73581189 266.22093559 58.3828125 253.38671875 C62.41500842 249.71205744 66.49118052 246.78336298 71.3828125 244.38671875 C73.34906057 231.96219035 73.34906057 231.96219035 70.08642578 220.27832031 C66.49539014 216.42560253 62.13104673 213.64606148 57.68798828 210.86669922 C53.90794278 208.43981553 50.42108267 205.64854544 46.8828125 202.88671875 C45.45649416 201.80237842 44.02941077 200.71904369 42.6015625 199.63671875 C37.78121283 195.95056901 33.09301055 192.110471 28.40234375 188.26171875 C23.63748257 184.36745107 18.78735732 180.60309515 13.8828125 176.88671875 C7.62184907 172.14252788 1.49607238 167.26264782 -4.57568359 162.27929688 C-10.23829051 157.65046289 -16.02419895 153.19578943 -21.859375 148.78710938 C-22.52453125 148.28373047 -23.1896875 147.78035156 -23.875 147.26171875 C-24.4539502 146.82601562 -25.03290039 146.3903125 -25.62939453 145.94140625 C-27.6171875 144.38671875 -27.6171875 144.38671875 -30.23840332 141.85124207 C-34.50049413 138.33911122 -38.74444961 138.25473109 -44.03328514 138.51713276 C-55.70066418 140.01978691 -63.56614663 149.76705929 -71.41396761 157.73530746 C-73.3435676 159.68460809 -75.29908141 161.6068655 -77.25471342 163.52999288 C-81.87540748 168.0749259 -86.45117736 172.66177911 -91 177.27856445 C-95.66318187 182.00999247 -100.39299163 186.66598739 -105.16229498 191.29022425 C-109.28397759 195.29128047 -113.36074554 199.33452609 -117.40532053 203.41350919 C-119.80894568 205.83691961 -122.22487737 208.24255032 -124.68492508 210.60878563 C-137.27644322 222.39002537 -137.27644322 222.39002537 -141.83273888 238.35340595 C-141.69825885 241.960545 -141.32174219 245.49143157 -140.83117294 249.06589699 C-139.34967202 265.13381049 -149.97339093 281.41985233 -159.6171875 293.38671875 C-160.47942429 294.01696457 -161.34166107 294.64721039 -162.23002625 295.29655457 C-165.96904361 300.13668739 -165.31949239 304.9341557 -165.27661133 310.88793945 C-165.28709503 312.15663376 -165.29757874 313.42532806 -165.30838013 314.73246765 C-165.33650039 318.20331492 -165.33405986 321.67354364 -165.32608628 325.14447045 C-165.32295919 328.77472546 -165.34800138 332.40478415 -165.37004089 336.03495789 C-165.4074809 342.90552436 -165.41962884 349.7758929 -165.4226653 356.64655131 C-165.4273562 364.47007199 -165.46028045 372.2933944 -165.49556315 380.11682761 C-165.56749497 396.20677948 -165.60401395 412.29660921 -165.6171875 428.38671875 C-164.3035513 428.38257068 -164.3035513 428.38257068 -162.963377 428.37833881 C-141.65599462 428.31209084 -120.34862999 428.26244392 -99.04116631 428.23128223 C-88.737042 428.2158122 -78.43298644 428.19472003 -68.12890625 428.16040039 C-59.14805497 428.13050226 -50.16725347 428.11114474 -41.1863538 428.10445327 C-36.4308634 428.10054172 -31.67551542 428.09134613 -26.92007065 428.06952858 C-22.44348755 428.04915694 -17.96710547 428.04288634 -13.49048042 428.04739571 C-11.8481811 428.04657081 -10.20587502 428.04060916 -8.5636158 428.02910233 C-6.31900978 428.01414729 -4.07515989 428.01777568 -1.83053589 428.0259552 C0.05268718 428.02180713 0.05268718 428.02180713 1.97395515 428.01757526 C5.74093947 428.42550014 8.15547227 429.43496292 11.3828125 431.38671875 C13.60613748 434.41129658 13.63544725 437.12393044 13.64160156 440.81030273 C13.64790588 441.89500351 13.65421021 442.97970428 13.66070557 444.09727478 C13.65463287 445.84736595 13.65463287 445.84736595 13.6484375 447.6328125 C13.65035095 448.83607681 13.6522644 450.03934113 13.65423584 451.27906799 C13.65559672 453.82349863 13.65190705 456.36793623 13.64355469 458.91235352 C13.63286346 462.80566027 13.64344879 466.69850459 13.65625 470.59179688 C13.65492821 473.0638031 13.6523654 475.53580904 13.6484375 478.0078125 C13.65248596 479.17251572 13.65653442 480.33721893 13.66070557 481.53721619 C13.65124908 483.16899559 13.65124908 483.16899559 13.64160156 484.83374023 C13.64001038 485.78764145 13.63841919 486.74154266 13.63677979 487.72434998 C13.35671813 490.66026913 12.7304549 492.76588749 11.3828125 495.38671875 C7.98244712 497.65362901 6.81296961 497.63841424 2.82425785 497.64398766 C1.66078077 497.65043655 0.4973037 497.65688544 -0.70143026 497.66352975 C-1.98564904 497.66043255 -3.26986782 497.65733535 -4.59300232 497.65414429 C-5.96630178 497.65787894 -7.33959912 497.66247971 -8.71289307 497.66787493 C-12.4951409 497.68014318 -16.27730055 497.67983999 -20.05956376 497.67748618 C-24.13530419 497.67707898 -28.21101598 497.68810782 -32.28674316 497.69760132 C-40.27474487 497.71423281 -48.26271706 497.71971182 -56.25073462 497.72082607 C-62.74138517 497.72177545 -69.23202595 497.72588022 -75.72267342 497.73222733 C-94.11208823 497.74984496 -112.50147967 497.75906528 -130.89090299 497.75756638 C-131.88282541 497.75748647 -132.87474784 497.75740655 -133.89672852 497.75732422 C-134.88985749 497.75724246 -135.88298646 497.7571607 -136.90621025 497.75707646 C-153.00824157 497.75626322 -169.11017943 497.77540895 -185.21218371 497.80360095 C-201.73308598 497.83229891 -218.25394261 497.84614298 -234.77487046 497.8444134 C-244.05519402 497.84374847 -253.33541958 497.84928589 -262.61572075 497.8707695 C-270.51594473 497.88894065 -278.41602628 497.89336219 -286.31626206 497.87975065 C-290.34918384 497.87320056 -294.38183206 497.87317683 -298.41472816 497.89045715 C-302.10411257 497.90610342 -305.79300457 497.90341186 -309.48237634 497.88588889 C-311.45466583 497.88133303 -313.42697008 497.8965423 -315.39920133 497.91236818 C-316.56528616 497.90317059 -317.73137098 497.893973 -318.93279171 497.88449669 C-320.4454365 497.88514879 -320.4454365 497.88514879 -321.98863977 497.88581407 C-325.34628574 497.24828127 -326.53402756 496.04539933 -328.6171875 493.38671875 C-329.12512207 490.65478516 -329.12512207 490.65478516 -329.13476562 487.48828125 C-329.14737427 486.30024902 -329.15998291 485.1122168 -329.17297363 483.88818359 C-329.16082825 481.9693335 -329.16082825 481.9693335 -329.1484375 480.01171875 C-329.1522644 478.69510254 -329.15609131 477.37848633 -329.16003418 476.02197266 C-329.16592474 473.23776441 -329.15738164 470.45407026 -329.13867188 467.66992188 C-329.11588126 464.10522542 -329.1290069 460.54173357 -329.15296173 456.9770813 C-329.1709108 453.57186445 -329.15833527 450.16696981 -329.1484375 446.76171875 C-329.15653442 445.48248535 -329.16463135 444.20325195 -329.17297363 442.88525391 C-329.16036499 441.69722168 -329.14775635 440.50918945 -329.13476562 439.28515625 C-329.13158325 438.24020996 -329.12840088 437.19526367 -329.12512207 436.11865234 C-328.48618148 432.68210092 -327.33379146 431.52184175 -324.6171875 429.38671875 C-321.61352236 428.38549704 -319.63979157 428.26559864 -316.50317383 428.27319336 C-315.46232132 428.27326889 -314.42146881 428.27334442 -313.34907532 428.27342224 C-312.22712265 428.27858353 -311.10516998 428.28374481 -309.94921875 428.2890625 C-308.79926926 428.29047745 -307.64931976 428.2918924 -306.46452332 428.29335022 C-302.78621842 428.29895446 -299.10797405 428.31150771 -295.4296875 428.32421875 C-292.93815192 428.3292332 -290.44661539 428.3337962 -287.95507812 428.33789062 C-281.84242721 428.34892528 -275.72981168 428.36566757 -269.6171875 428.38671875 C-269.53739928 411.60929741 -269.50930566 394.8326981 -269.54202938 378.0551548 C-269.55603209 370.26421583 -269.55339254 362.47395849 -269.51098633 354.68310547 C-269.47404891 347.88910109 -269.46893655 341.09592806 -269.50135809 334.30188787 C-269.51741878 330.70719312 -269.51800623 327.11405664 -269.48042107 323.51948929 C-269.4389605 319.49706069 -269.46859097 315.47805653 -269.50366211 311.45556641 C-269.48065536 310.27592316 -269.45764862 309.09627991 -269.4339447 307.88088989 C-269.55673123 301.33822415 -270.50330831 297.82073049 -274.95240784 292.90585327 C-275.73416665 292.1580126 -276.51592546 291.41017193 -277.32137394 290.63966942 C-290.11576251 278.08415238 -294.85851857 258.89608314 -295.0546875 241.57421875 C-294.89870448 219.35321627 -286.76602781 200.83882721 -271.24609375 184.9609375 C-259.79869023 174.06300935 -245.95159352 167.514057 -230.32893372 165.30604553 C-222.24973007 163.86837565 -217.68983794 160.19523752 -212.04174805 154.42749023 C-211.09667389 153.50986908 -210.15159973 152.59224792 -209.17788696 151.64682007 C-206.61503092 149.15502312 -204.09104161 146.62716112 -201.5750196 144.08818316 C-199.45917474 141.95987132 -197.3250674 139.8503415 -195.1910041 137.74032265 C-190.15072854 132.75600132 -185.14202492 127.7414731 -180.15258789 122.70629883 C-175.03118956 117.53899114 -169.86077621 112.42487117 -164.66309708 107.33439392 C-160.17650885 102.93685768 -155.72208001 98.50846181 -151.29150611 94.0544973 C-148.65607927 91.4056853 -146.01083845 88.76935992 -143.3341732 86.1621685 C-129.45678908 73.5286524 -129.45678908 73.5286524 -123.44458008 56.50415039 C-123.4469278 55.12737173 -123.47350594 53.75035446 -123.52790833 52.37464905 C-123.88255053 36.53345877 -114.10410299 20.57268199 -104.1484375 8.98046875 C-76.81057421 -19.03240351 -31.65268332 -23.73516698 0 0 Z M-89.6171875 20.38671875 C-101.03360919 33.88787832 -107.30215489 48.64006671 -106.6171875 66.44921875 C-104.7813261 83.59694544 -96.94723605 98.37573344 -83.6171875 109.38671875 C-69.44497337 119.32099476 -53.80708796 123.37828373 -36.5 120.94921875 C-23.58958188 118.20960748 -12.74640094 111.78692924 -3.6171875 102.38671875 C-3.05644531 101.84660156 -2.49570312 101.30648437 -1.91796875 100.75 C7.626811 90.80438961 12.23810379 76.05598911 12.8203125 62.57421875 C12.31771523 45.32599413 5.23750556 29.90318521 -7.12109375 17.96875 C-21.14588651 5.78126633 -36.14604672 2.3831446 -54.17285156 3.19580078 C-67.21375718 4.21437731 -80.68588673 10.78404458 -89.6171875 20.38671875 Z M-121.95839024 88.60487366 C-122.53266726 89.18007248 -123.10694429 89.7552713 -123.69862366 90.34790039 C-124.35630234 91.00420441 -125.01398102 91.66050842 -125.69158936 92.33670044 C-126.41735168 93.06605804 -127.14311401 93.79541565 -127.89086914 94.546875 C-129.03225594 95.68804276 -129.03225594 95.68804276 -130.19670105 96.8522644 C-132.7259577 99.38222098 -135.25164812 101.91570754 -137.77734375 104.44921875 C-139.52447638 106.19821527 -141.27182906 107.946992 -143.01939392 109.69555664 C-147.1577892 113.83738757 -151.29394978 117.98143968 -155.42904896 122.12656116 C-160.59692057 127.30668719 -165.76822664 132.48337951 -170.93945312 137.66015625 C-180.16813531 146.89957971 -189.39373858 156.14207122 -198.6171875 165.38671875 C-197.74087819 167.70162998 -197.74087819 167.70162998 -194.80859375 168.46484375 C-193.61105469 168.8515625 -192.41351563 169.23828125 -191.1796875 169.63671875 C-170.81357766 176.62041578 -157.5633503 190.79171872 -147.6171875 209.38671875 C-142.74680151 205.32476598 -138.15372746 201.07189989 -133.67211914 196.58691406 C-133.01760773 195.93576126 -132.36309631 195.28460846 -131.68875122 194.61372375 C-129.54898884 192.48338038 -127.4129414 190.34936156 -125.27734375 188.21484375 C-123.78526494 186.72598063 -122.2931119 185.23719189 -120.80088806 183.74847412 C-117.6866894 180.64024168 -114.57454281 177.52997103 -111.46362305 174.41845703 C-107.46812641 170.42285818 -103.46576023 166.43421654 -99.46164799 162.44725418 C-96.38459638 159.38128381 -93.31206266 156.31081715 -90.2408123 153.23903656 C-88.76595628 151.76536373 -87.28947128 150.29331937 -85.8113575 148.82291412 C-83.7549862 146.776277 -81.70497229 144.72347835 -79.65649414 142.66894531 C-79.04099197 142.05906265 -78.42548981 141.44917999 -77.79133606 140.82081604 C-74.6662208 138.11085429 -74.6662208 138.11085429 -73.6171875 134.38671875 C-74.65617187 133.90203125 -75.69515625 133.41734375 -76.765625 132.91796875 C-97.66592021 122.96353488 -110.76255043 108.76279045 -119.6171875 87.38671875 C-120.79578446 87.27466305 -120.79578446 87.27466305 -121.95839024 88.60487366 Z M24.3828125 92.38671875 C23.30785185 94.10580264 22.23844321 95.82860679 21.19726562 97.56835938 C12.49316348 112.09244066 1.99875076 122.725422 -12.6171875 131.38671875 C-8.54522833 135.62569187 -4.16656296 139.35747543 0.3828125 143.07421875 C1.5116687 144.00004761 1.5116687 144.00004761 2.66333008 144.94458008 C8.10375316 149.38775577 13.62213116 153.71067773 19.2109375 157.96484375 C22.60415594 160.55572483 25.96624594 163.18301316 29.3203125 165.82421875 C29.90192139 166.28207764 30.48353027 166.73993652 31.08276367 167.21166992 C32.26088508 168.13946702 33.43886326 169.06744602 34.61669922 169.99560547 C37.53652295 172.2954611 40.45981701 174.5908966 43.3828125 176.88671875 C47.55265214 180.16251948 51.7217115 183.43930796 55.88964844 186.7175293 C57.64800239 188.09953464 59.40791911 189.47953026 61.16796875 190.859375 C63.18404403 192.44083292 65.19018166 194.0323895 67.19140625 195.6328125 C67.99707031 196.27347656 68.80273438 196.91414063 69.6328125 197.57421875 C70.31859375 198.12464844 71.004375 198.67507812 71.7109375 199.2421875 C73.32018278 200.57501583 73.32018278 200.57501583 75.3828125 200.38671875 C75.6509375 199.84144531 75.9190625 199.29617187 76.1953125 198.734375 C81.53055618 188.46754095 88.12179658 181.7485201 98.3828125 176.38671875 C96.72200576 172.23973464 93.72283517 169.31977117 90.6953125 166.13671875 C89.59695601 164.96419723 88.49929526 163.79102356 87.40234375 162.6171875 C86.87592285 162.05563965 86.34950195 161.4940918 85.80712891 160.91552734 C81.97912988 156.80669466 78.34903056 152.52576873 74.71484375 148.24609375 C69.64853138 142.29044189 64.53695132 136.41042644 59.1953125 130.69921875 C55.62952138 126.88672331 52.21180464 123.02637317 48.9453125 118.94921875 C44.88028533 113.88277065 40.53120384 109.1400554 36.07446289 104.42016602 C32.78590927 100.93221363 29.63177076 97.37110862 26.57104492 93.68066406 C26.17892822 93.25366211 25.78681152 92.82666016 25.3828125 92.38671875 C25.0528125 92.38671875 24.7228125 92.38671875 24.3828125 92.38671875 Z M-263.6171875 203.38671875 C-274.72625991 217.47727016 -277.65115473 232.97962295 -276.6171875 250.38671875 C-274.48870515 266.04766226 -265.12908341 279.88748487 -252.921875 289.51171875 C-238.67207768 299.15006563 -223.18656431 302.14332454 -206.328125 299.9609375 C-189.80994252 296.33228016 -176.27784915 287.06204619 -167.1171875 272.94921875 C-158.70872686 258.28248596 -156.21704145 242.06307203 -160.1796875 225.63671875 C-164.82916767 210.17638432 -174.69691984 197.56774562 -188.6171875 189.38671875 C-214.46274052 175.64141757 -244.10229238 181.95518214 -263.6171875 203.38671875 Z M96.3828125 198.38671875 C91.86989074 204.37659672 90.2283683 209.18054809 90.28515625 216.6796875 C90.28765381 217.97156982 90.29015137 219.26345215 90.29272461 220.59448242 C90.30182861 222.23779541 90.31093262 223.8811084 90.3203125 225.57421875 C90.3409375 230.79234375 90.3615625 236.01046875 90.3828125 241.38671875 C106.8828125 241.38671875 123.3828125 241.38671875 140.3828125 241.38671875 C140.4446875 236.78734375 140.5065625 232.18796875 140.5703125 227.44921875 C140.59762451 226.01715088 140.62493652 224.58508301 140.65307617 223.10961914 C140.72118212 212.61031781 139.71283876 204.88092354 132.33203125 197.11328125 C121.86144417 187.83873318 106.34625716 188.47397865 96.3828125 198.38671875 Z M68.63671875 269.25 C65.17591536 275.14738148 64.00781309 280.38683601 64.04223633 287.1796875 C64.04179825 287.9123735 64.04136017 288.64505951 64.04090881 289.39994812 C64.04297802 291.79165474 64.06621882 294.18263651 64.08984375 296.57421875 C64.09544639 298.24429949 64.09971333 299.9143852 64.10270691 301.58447266 C64.11410318 305.95751817 64.14352474 310.33025973 64.17681885 314.70318604 C64.2076329 319.17447804 64.22123636 323.64581967 64.23632812 328.1171875 C64.26840003 336.87383664 64.31953236 345.63023977 64.3828125 354.38671875 C68.37167736 353.1350808 72.03999817 351.67086665 75.7578125 349.76171875 C76.63179688 349.31570313 77.50578125 348.8696875 78.40625 348.41015625 C79.38464844 347.90355469 79.38464844 347.90355469 80.3828125 347.38671875 C80.39311996 346.56874817 80.40342743 345.75077759 80.41404724 344.90802002 C80.51204092 337.19793502 80.61455805 329.48792971 80.72215176 321.77797318 C80.77730671 317.81424955 80.83071473 313.85051845 80.88012695 309.88671875 C80.9278802 306.06116153 80.98022677 302.23569218 81.03575325 298.41024017 C81.0561272 296.95103901 81.07484836 295.49181381 81.09188652 294.03256989 C81.11604067 291.98809629 81.14607963 289.94378727 81.17749023 287.89941406 C81.19303452 286.7358136 81.2085788 285.57221313 81.22459412 284.37335205 C81.47696525 279.60943004 81.47696525 279.60943004 82.3828125 277.38671875 C85.52389296 276.33969193 87.77765199 276.24125832 91.07592773 276.2097168 C92.24401474 276.19688156 93.41210175 276.18404633 94.61558533 276.17082214 C96.50936668 276.15974174 96.50936668 276.15974174 98.44140625 276.1484375 C99.73724136 276.14036575 101.03307648 276.13229401 102.36817932 276.12397766 C105.11109282 276.10896835 107.85398057 276.09912082 110.59692383 276.09155273 C114.10883047 276.08047384 117.62010601 276.04604993 121.13178921 276.00638103 C124.48496995 275.97394897 127.83808075 275.96944012 131.19140625 275.9609375 C132.45190292 275.94342941 133.7123996 275.92592133 135.01109314 275.90788269 C136.76795189 275.91227104 136.76795189 275.91227104 138.56030273 275.91674805 C140.10559914 275.90794868 140.10559914 275.90794868 141.68211365 275.89897156 C145.19949209 276.53421138 146.33540219 277.47207841 148.3828125 280.38671875 C148.90179443 283.37335205 148.90179443 283.37335205 148.92871094 286.89941406 C148.93904861 287.54373383 148.94938629 288.18805359 148.96003723 288.85189819 C148.98944143 290.97313586 148.99096375 293.09341841 148.9921875 295.21484375 C149.00717094 296.6888816 149.02389845 298.16290268 149.04229736 299.63690186 C149.08596554 303.51009903 149.1059685 307.38306976 149.12103271 311.25646973 C149.14060595 315.21148059 149.18257563 319.16624695 149.22265625 323.12109375 C149.2979527 330.87626725 149.34617646 338.6312486 149.3828125 346.38671875 C154.6628125 349.02671875 159.9428125 351.66671875 165.3828125 354.38671875 C165.45068746 344.5984527 165.50568576 334.81034389 165.53824902 325.02189541 C165.5538806 320.47634041 165.57507291 315.93095529 165.60913086 311.38549805 C165.64181396 306.99587912 165.65968437 302.60642322 165.66744423 298.21669197 C165.6729717 296.54500832 165.68376551 294.87333322 165.70000267 293.20171928 C165.72189635 290.85360561 165.72477451 288.5061589 165.72338867 286.15795898 C165.7341745 285.47246979 165.74496033 284.78698059 165.756073 284.08071899 C165.7055824 276.13372119 162.40844147 270.83803491 157.15234375 265.1171875 C152.03993592 260.11763635 147.21927672 259.27617999 140.30419922 259.19384766 C139.07547089 259.17778473 137.84674255 259.1617218 136.58078003 259.14517212 C135.24136047 259.13368043 133.90193307 259.12307261 132.5625 259.11328125 C131.54414755 259.10529573 131.54414755 259.10529573 130.50522232 259.0971489 C126.90811546 259.07046147 123.31104269 259.05107701 119.71386719 259.03662109 C116.75358948 259.02331684 113.79400683 258.99552502 110.83398438 258.95458984 C107.24365582 258.90495304 103.6539542 258.8804625 100.06329727 258.87339401 C98.04822587 258.86351762 96.0333199 258.8293488 94.01852417 258.79458618 C83.53686525 258.81852985 75.55003093 261.05720915 68.63671875 269.25 Z M-251.6171875 311.38671875 C-251.6171875 349.99671875 -251.6171875 388.60671875 -251.6171875 428.38671875 C-229.1771875 428.38671875 -206.7371875 428.38671875 -183.6171875 428.38671875 C-183.6171875 389.77671875 -183.6171875 351.16671875 -183.6171875 311.38671875 C-187.60763221 312.18480769 -191.25408005 313.15918928 -195.1171875 314.38671875 C-211.52437239 319.60021675 -228.32987448 318.49865892 -244.6171875 313.38671875 C-246.9271875 312.72671875 -249.2371875 312.06671875 -251.6171875 311.38671875 Z M-310.6171875 446.38671875 C-310.6171875 457.27671875 -310.6171875 468.16671875 -310.6171875 479.38671875 C-209.6371875 479.38671875 -108.6571875 479.38671875 -4.6171875 479.38671875 C-4.6171875 468.49671875 -4.6171875 457.60671875 -4.6171875 446.38671875 C-105.5971875 446.38671875 -206.5771875 446.38671875 -310.6171875 446.38671875 Z " fill="#1569BE" transform="translate(328.6171875,14.61328125)"/>
<path d="M0 0 C9.63197638 6.8944673 16.27953185 15.58353055 19.1875 27.125 C21.53192464 41.32844854 18.76107562 52.91353029 10.3671875 64.67578125 C1.91837299 74.85198497 -8.23541213 78.87038661 -21.18359375 80.40625 C-31.83531628 80.87531668 -41.53855049 77.70043549 -49.8125 71.125 C-51.3903125 69.9803125 -51.3903125 69.9803125 -53 68.8125 C-61.26450222 60.91530899 -66.10510544 50.13648965 -66.84765625 38.7265625 C-66.66878253 25.489907 -62.05525579 14.78162755 -53.03515625 5.24609375 C-39.00827793 -8.03497918 -16.31328464 -10.35933624 0 0 Z M-44.4375 23.0625 C-48.61868713 29.33428069 -48.62943507 35.80662337 -47.8125 43.125 C-45.72209229 49.95615378 -41.95543999 55.40237837 -35.8125 59.125 C-28.49440287 62.53751692 -22.13782645 63.01528015 -14.375 60.6875 C-7.38078073 57.94561212 -2.85600558 53.39961167 0.37890625 46.6328125 C2.90928898 39.34803352 2.64938076 32.87558909 -0.5625 25.875 C-3.80975843 19.987884 -9.12858066 14.59793061 -15.67578125 12.5390625 C-27.68144295 10.21255402 -36.66112852 13.79067246 -44.4375 23.0625 Z " fill="#1764BD" transform="translate(304.8125,39.875)"/>
<path d="M0 0 C8.264178 7.81746567 13.66564658 18.50473677 14.515625 29.9140625 C14.72266825 42.7162367 11.28237519 54.70506051 2.3125 64.1875 C-9.17314636 74.00297407 -20.65033815 77.2354438 -35.6875 76.1875 C-43.57490438 74.97796247 -49.38074343 71.96884187 -55.6875 67.1875 C-56.55375 66.61 -57.42 66.0325 -58.3125 65.4375 C-66.90110136 57.30093029 -71.62522504 47.05707203 -72.15844727 35.2512207 C-72.3427605 22.15878556 -68.39194511 11.98794276 -59.6875 2.1875 C-42.13374663 -14.17559181 -19.02341912 -12.82974778 0 0 Z M-47.6875 16.1875 C-52.94164336 23.41194712 -54.42628968 29.2682937 -53.6875 38.1875 C-52.12670738 45.1680528 -48.43048885 50.08648726 -42.75 54.4375 C-36.49770262 58.01024136 -30.81700434 59.06795084 -23.6875 58.1875 C-15.04365127 55.53416669 -9.92322532 51.22795922 -5.703125 43.30859375 C-3.01243849 37.68919846 -2.62497578 31.68336985 -4.44140625 25.70703125 C-8.02659263 17.31347725 -12.51221581 13.10200072 -20.6875 9.1875 C-30.41833196 5.94388935 -40.51979824 9.01979824 -47.6875 16.1875 Z " fill="#0989C6" transform="translate(139.6875,222.8125)"/>
<path d="M0 0 C2.61132668 1.65445756 3.57680411 2.35818684 5 5 C5.76109492 9.40128274 5.70018038 13.76140783 5.6640625 18.21875 C5.66884613 19.50938354 5.67362976 20.80001709 5.67855835 22.12976074 C5.6859143 24.8568323 5.67526785 27.5830828 5.65185547 30.31005859 C5.62336557 33.79752706 5.63977683 37.28307172 5.66971779 40.77046967 C5.692179 44.10754877 5.67643132 47.44411631 5.6640625 50.78125 C5.67418365 52.03031128 5.68430481 53.27937256 5.69473267 54.56628418 C5.56449417 64.19078393 5.56449417 64.19078393 2.67724609 67.29101562 C-0.87077569 69.55584806 -2.86230901 69.66498605 -7 69 C-11.58491833 66.20918015 -11.58491833 66.20918015 -12.6227417 63.18588257 C-13.05480513 60.68245209 -13.14216018 58.31712051 -13.16113281 55.77587891 C-13.17074036 54.73444733 -13.1803479 53.69301575 -13.19024658 52.62002563 C-13.19449646 51.5001828 -13.19874634 50.38033997 -13.203125 49.2265625 C-13.20882507 48.07006195 -13.21452515 46.9135614 -13.22039795 45.72201538 C-13.22984119 43.27594923 -13.23637924 40.8298704 -13.24023438 38.38378906 C-13.24994477 34.64625846 -13.28097737 30.90927669 -13.3125 27.171875 C-13.31902983 24.7942741 -13.32428038 22.41666926 -13.328125 20.0390625 C-13.3404718 18.92326813 -13.3528186 17.80747375 -13.36553955 16.65786743 C-13.34954166 11.07272623 -13.32906354 6.73811358 -10 2 C-6.24952518 -0.50031654 -4.44143734 -0.53603554 0 0 Z " fill="#088BC6" transform="translate(106,358)"/>
<path d="M0 0 C2.96326994 2.10548127 3.83222327 3.47429959 4.9375 6.9375 C5.02718311 11.33197255 3.30379184 13.55605023 0.38668823 16.78674316 C-1.67460698 18.92309345 -3.76958454 21.02042983 -5.87890625 23.109375 C-6.64677963 23.87679016 -7.41465302 24.64420532 -8.20579529 25.43487549 C-9.82485232 27.05091851 -11.44633203 28.66453751 -13.07006836 30.27587891 C-15.56228101 32.74978262 -18.0463463 35.23164766 -20.52929688 37.71484375 C-22.10369455 39.2843279 -23.67854863 40.85335439 -25.25390625 42.421875 C-25.99975479 43.16661072 -26.74560333 43.91134644 -27.51405334 44.6786499 C-28.20494553 45.36316223 -28.89583771 46.04767456 -29.60766602 46.75292969 C-30.21594742 47.35739929 -30.82422882 47.9618689 -31.45094299 48.58465576 C-33.83977434 50.76728601 -35.00486732 51.00045918 -38.3125 51.3125 C-42 51 -42 51 -44.9375 49.5625 C-47.46050323 46.42785962 -48.01509925 44.56174484 -47.68408203 40.57641602 C-46.83818806 37.39057767 -45.56225456 35.967824 -43.30859375 33.5703125 C-42.0860791 32.26537842 -42.0860791 32.26537842 -40.83886719 30.93408203 C-39.89455743 29.95414348 -38.94814806 28.97622525 -38 28 C-37.48336792 27.46646912 -36.96673584 26.93293823 -36.43444824 26.38323975 C-32.98592227 22.83399598 -29.5045866 19.31880962 -26.00512695 15.81982422 C-24.16784321 13.98031945 -22.33875661 12.13290237 -20.50976562 10.28515625 C-19.33382167 9.10628351 -18.15740674 7.92788034 -16.98046875 6.75 C-16.43875534 6.20110107 -15.89704193 5.65220215 -15.33891296 5.08666992 C-10.10522489 -0.11552003 -7.37971552 -1.84492888 0 0 Z " fill="#0F78C2" transform="translate(209,137)"/>
</svg>
